<svg xmlns="http://www.w3.org/2000/svg" viewBox="0 0 205 28.313"><defs><style>.a{fill:#fff;}</style></defs><title>Монтажная область 1</title><path class="a" d="M165.971,14.688a4.5,4.5,0,1,1,0-1H205v1ZM180.785,1.024h5.77V10.4H197.2V1.024h5.77V11.688H180.785ZM167.372,8.293a7.472,7.472,0,0,0-5.7-2.4,7.381,7.381,0,0,0-5.658,2.379,8.8,8.8,0,0,0,.038,11.709,7.469,7.469,0,0,0,5.7,2.4A7.381,7.381,0,0,0,167.41,20a8.013,8.013,0,0,0,1.87-3.314h6.147a12.929,12.929,0,0,1-3.765,7.061,14.567,14.567,0,0,1-19.933.018,13.637,13.637,0,0,1,.038-19.239A14.566,14.566,0,0,1,171.7,4.509a12.9,12.9,0,0,1,3.745,7.179H169.3A8.059,8.059,0,0,0,167.372,8.293ZM136.536,27.252h-5.77V6.345h-7.98V1.024h21.731V6.345h-7.981ZM111.3,27.7a12.909,12.909,0,0,1-9.611-3.915A13.824,13.824,0,0,1,117.255,1.68c.251.119.5.25.745.386V8.614a12.748,12.748,0,0,0-2.937-2.026,8.389,8.389,0,0,0-3.578-.693,7.037,7.037,0,0,0-5.452,2.379,9.033,9.033,0,0,0,0,11.709,7.011,7.011,0,0,0,5.452,2.4,8.2,8.2,0,0,0,3.634-.749A13.507,13.507,0,0,0,118,19.646v6.7c-.191.1-.383.186-.576.271A15.334,15.334,0,0,1,111.3,27.7ZM87.019,10.054l-11.465,17.2H70.121V1.024h5.7v17.2l11.54-17.2h5.358V27.252h-5.7v-17.2ZM52.4,25.454V28.3h-5.77V25.454q-5.958,0-9.48-3.278A10.934,10.934,0,0,1,33.627,13.8,10.561,10.561,0,0,1,37.149,5.6q3.522-3.183,9.48-3.184V.012H52.4v2.4q5.919,0,9.46,3.2A10.589,10.589,0,0,1,65.4,13.836a10.892,10.892,0,0,1-3.522,8.337q-3.522,3.281-9.478,3.28ZM46.629,7.545A7.406,7.406,0,0,0,41.5,9.288a6.512,6.512,0,0,0-.083,9.209l.083.083a7.406,7.406,0,0,0,5.133,1.742V7.544ZM57.513,9.287A7.339,7.339,0,0,0,52.4,7.545V20.321a7.339,7.339,0,0,0,5.114-1.742,6.555,6.555,0,0,0,.022-9.272.14.14,0,0,0-.022-.019ZM16.093,27.7a13.521,13.521,0,0,1-9.948-3.934,12.9,12.9,0,0,1-3.732-7.08H8.577a8.065,8.065,0,0,0,1.9,3.295,7.466,7.466,0,0,0,5.7,2.4A7.381,7.381,0,0,0,21.829,20a8.8,8.8,0,0,0-.037-11.709,7.472,7.472,0,0,0-5.7-2.4,7.38,7.38,0,0,0-5.658,2.379,8,8,0,0,0-1.9,3.414H2.4a12.934,12.934,0,0,1,3.779-7.16,14.566,14.566,0,0,1,19.933-.019A13.6,13.6,0,0,1,16.093,27.7ZM16.5,9.688a4.5,4.5,0,1,1-4.471,5H0v-1H12.029A4.5,4.5,0,0,1,16.5,9.688ZM202.966,27.252H197.2V17.723H186.555v9.529h-5.77V16.688h22.181Z"/></svg>